<svg xmlns="http://www.w3.org/2000/svg" viewBox="0 0 26.25 30.22"><defs><style>.cls-1{fill:#fff;}</style></defs><g id="Слой_2" data-name="Слой 2"><g id="Asset_Bank" data-name="Asset Bank"><path class="cls-1" d="M26.25,0l-8.6,5.49a13,13,0,0,0-4.49-.8H13.1a13,13,0,0,0-4.51.8L0,0V17.1l.46.44L13.13,30.22l.92-.93,12.2-12.2V0ZM1.54,11.59V2.82L6.9,6.24c-.07,0-.16.08-.24.14a2.1,2.1,0,0,0-.24.14c-.18.11-.36.21-.54.34A1.64,1.64,0,0,0,5.62,7c-.18.12-.34.24-.51.37l-.19.16L4.41,8a1.89,1.89,0,0,0-.2.2c-.17.14-.33.3-.49.46a.24.24,0,0,0-.08.09c-.18.18-.36.38-.53.58s-.38.47-.56.7a.37.37,0,0,0-.06.1,6,6,0,0,0-.41.58l-.1.17c-.14.21-.27.44-.4.67Zm1.28,6.14a11.61,11.61,0,0,1,9.35,9.35Zm11.26,9.35a11.6,11.6,0,0,1,9.35-9.35Zm-.95-2.39A13.17,13.17,0,0,0,1.64,16c0-.27.1-.53.16-.8s.11-.44.18-.67a5.93,5.93,0,0,1,.24-.71,5.36,5.36,0,0,1,.23-.58,1.56,1.56,0,0,1,.06-.15,4.6,4.6,0,0,1,.31-.63A5.21,5.21,0,0,1,3.1,12c.1-.16.2-.32.31-.48s.19-.29.29-.43l.23-.31a2.39,2.39,0,0,1,.21-.26l.25-.3a5,5,0,0,1,.39-.41s0,0,.06-.07.25-.25.38-.37.22-.21.35-.31l0,0,.46-.38c.12-.09.24-.18.37-.26A11,11,0,0,1,8.79,7.07a11.33,11.33,0,0,1,4.31-.84h.06a11.36,11.36,0,0,1,4.3.84A11,11,0,0,1,19,7.85a6.1,6.1,0,0,1,.54.34.16.16,0,0,1,.08.06,3.61,3.61,0,0,1,.51.36l.28.22.33.28.17.15c.16.14.32.3.47.45l0,0c.17.18.34.36.48.54,0,0,0,0,0,0a6.61,6.61,0,0,1,.47.58l0,0a6.62,6.62,0,0,1,.44.64c.12.18.23.36.34.56l.12.2a6.19,6.19,0,0,1,.28.58s0,0,0,.07a6.14,6.14,0,0,1,.27.64.42.42,0,0,1,0,.1,5.17,5.17,0,0,1,.18.51c.07.18.12.37.18.57s.08.31.11.47a6.42,6.42,0,0,1,.14.74A13.14,13.14,0,0,0,13.13,24.69ZM24.7,11.59s0,0,0-.06c-.15-.26-.29-.52-.46-.77h0Q24,10.37,23.7,10a12.74,12.74,0,0,0-1.18-1.37l-.1-.11c-.19-.19-.38-.38-.58-.55s-.34-.29-.51-.42l-.2-.16c-.16-.13-.33-.25-.51-.37a1.06,1.06,0,0,0-.26-.17,4.42,4.42,0,0,0-.54-.34,1.65,1.65,0,0,0-.25-.15l-.23-.13L24.7,2.82Z"/></g></g></svg>