<svg xmlns="http://www.w3.org/2000/svg" viewBox="0 0 15.52 15.52"><defs><style>.cls-1{fill:#739ba2;}</style></defs><g id="Слой_2" data-name="Слой 2"><g id="Asset_Bank" data-name="Asset Bank"><path class="cls-1" d="M13.45,2.5a2.24,2.24,0,0,0,1.33-2h-.92a1.32,1.32,0,0,1-1.18,1.31,7.72,7.72,0,0,0-9.84,0A1.33,1.33,0,0,1,1.65.46H.74a2.24,2.24,0,0,0,1.33,2A7.76,7.76,0,1,0,15.52,7.76,7.72,7.72,0,0,0,13.45,2.5Zm-1.8-.37A7.77,7.77,0,0,0,7.76,6.5,7.77,7.77,0,0,0,3.87,2.13a6.81,6.81,0,0,1,7.78,0ZM7.76,14.6A6.83,6.83,0,0,1,3.08,2.77,6.87,6.87,0,0,1,7.3,9.09h.92a6.87,6.87,0,0,1,4.22-6.32A6.83,6.83,0,0,1,7.76,14.6Z"/></g></g></svg>