<svg xmlns="http://www.w3.org/2000/svg" viewBox="0 0 26.26 26.26"><defs><style>.cls-1{fill:#fff;}</style></defs><g id="Слой_2" data-name="Слой 2"><g id="Asset_Bank" data-name="Asset Bank"><path class="cls-1" d="M22.75,4.23A3.78,3.78,0,0,0,25,.77H23.46a2.23,2.23,0,0,1-2,2.22A13.1,13.1,0,0,0,4.8,3,2.23,2.23,0,0,1,2.8.77H1.25A3.79,3.79,0,0,0,3.51,4.23a13.12,13.12,0,1,0,22.75,8.9A13,13,0,0,0,22.75,4.23Zm-3-.63A13.22,13.22,0,0,0,13.13,11,13.22,13.22,0,0,0,6.55,3.6a11.54,11.54,0,0,1,13.16,0ZM13.13,24.71a11.57,11.57,0,0,1-7.92-20,11.64,11.64,0,0,1,7.15,10.7H13.9A11.63,11.63,0,0,1,21,4.69a11.57,11.57,0,0,1-7.91,20Z"/></g></g></svg>