<svg xmlns="http://www.w3.org/2000/svg" viewBox="0 0 28.7 28.7"><defs><style>.cls-1{fill:#272e38;}</style></defs><g id="Слой_2" data-name="Слой 2"><g id="Asset_Bank" data-name="Asset Bank"><path class="cls-1" d="M0,0V28.7H28.7V0ZM12.83,18.25a1.83,1.83,0,0,1-.5-.46.63.63,0,0,1,0-.75,2.48,2.48,0,0,1,.45-.52c1-1,2.08-1.95,3.1-2.94.42-.41.84-.8,1.22-1.24a.45.45,0,0,0,.1-.14.22.22,0,0,0-.21-.33.59.59,0,0,0-.33.13c-1,.61-1.93,1.26-2.9,1.9s-2,1.38-3.07,2.06a2.64,2.64,0,0,1-1.33.5,3.91,3.91,0,0,1-1.12-.18c-.71-.17-1.41-.4-2.1-.64a1.66,1.66,0,0,1-.48-.24.42.42,0,0,1,0-.67,2,2,0,0,1,.69-.43c3.3-1.41,6.57-2.86,9.88-4.23,1.09-.45,2.17-.91,3.29-1.27A3.2,3.2,0,0,1,20,8.65a1.08,1.08,0,0,1,.4,0,.6.6,0,0,1,.54.59c0,.11,0,.22,0,.32,0,.5-.1,1-.17,1.48-.21,1.6-.47,3.19-.73,4.78s-.5,2.94-.78,4.41a2.65,2.65,0,0,1-.24.72.92.92,0,0,1-1.19.55A2.49,2.49,0,0,1,17,21.1C15.65,20.13,14.23,19.2,12.83,18.25Z"/></g></g></svg>