<svg xmlns="http://www.w3.org/2000/svg" viewBox="0 0 28.7 28.7"><defs><style>.cls-1{fill:#272e38;}</style></defs><g id="Слой_2" data-name="Слой 2"><g id="Asset_Bank" data-name="Asset Bank"><path class="cls-1" d="M0,0V28.7H28.7V0ZM23.69,9.43a7.61,7.61,0,0,1-1.21,1.13.27.27,0,0,0-.13.26A11.29,11.29,0,0,1,20,18,10.36,10.36,0,0,1,13.35,22a11.6,11.6,0,0,1-2.2.18,11,11,0,0,1-5.66-1.66l-.08,0,0,0a7.88,7.88,0,0,0,5.71-1.62,3.87,3.87,0,0,1-3.63-2.69,4,4,0,0,0,1.72-.07,3.88,3.88,0,0,1-3.07-3.85,4,4,0,0,0,1.74.47A3.89,3.89,0,0,1,6.6,7.65c.06-.11.09-.08.15,0A11,11,0,0,0,13.1,11.4a10.1,10.1,0,0,0,1.45.19c.12,0,.11,0,.09-.12A3.7,3.7,0,0,1,15,9a3.87,3.87,0,0,1,3.09-2.1A3.61,3.61,0,0,1,21.2,8a.22.22,0,0,0,.23,0A7.59,7.59,0,0,0,23.6,7.2l.12,0h0a2.9,2.9,0,0,1-.5,1,4.08,4.08,0,0,1-1.1,1.05,6.94,6.94,0,0,0,2.15-.58A7.19,7.19,0,0,1,23.69,9.43Z"/></g></g></svg>