<svg xmlns="http://www.w3.org/2000/svg" viewBox="0 0 116.03 114.36"><defs><style>.cls-1{fill:#fff;}</style></defs><g id="Слой_2" data-name="Слой 2"><g id="Asset_Bank" data-name="Asset Bank"><path class="cls-1" d="M54.32,73.45a4.89,4.89,0,0,0,0-9.77H16.68L63.33,17a24.85,24.85,0,0,1,35.1,0l9.26,9.26a4.89,4.89,0,0,0,6.91-6.91l-9.26-9.25a34.63,34.63,0,0,0-48.92,0L9.77,56.77V19.13a4.89,4.89,0,1,0-9.77,0V73.45Z"/><path class="cls-1" d="M61.71,40.91a4.89,4.89,0,1,0,0,9.77H99.35L52.7,97.34a24.86,24.86,0,0,1-35.1,0L8.34,88.08A4.88,4.88,0,0,0,1.43,95l9.26,9.26a34.62,34.62,0,0,0,48.92,0l46.65-46.65V95.23a4.89,4.89,0,1,0,9.77,0V40.91Z"/></g></g></svg>