<svg xmlns="http://www.w3.org/2000/svg" viewBox="0 0 14.41 19.35"><defs><style>.cls-1{fill:#739ba2;}</style></defs><g id="Слой_2" data-name="Слой 2"><g id="Asset_Bank" data-name="Asset Bank"><path class="cls-1" d="M13.57,8.77h0l-.14-.22V0L9.57,5.35a7.23,7.23,0,0,0-4.73,0L1,0V8.54l-.13.22h0A7.17,7.17,0,0,0,0,12.15a1.27,1.27,0,0,0,0,.2l0,.31.3.06a6.32,6.32,0,0,1,5,6v.34l.32.07a7.2,7.2,0,0,0,3.11,0l.32-.07v-.34a6.33,6.33,0,0,1,5-6l.3-.06,0-.31a1.27,1.27,0,0,0,0-.2A7.17,7.17,0,0,0,13.57,8.77Zm-6.36,8a.91.91,0,1,1,.9-.91A.91.91,0,0,1,7.21,16.74Zm.9-3H6.3V7H8.11Z"/></g></g></svg>