<svg xmlns="http://www.w3.org/2000/svg" viewBox="0 0 1703.85 788.55"><defs><style>.cls-1{fill:#17191a;}.cls-2{fill:#141516;}</style></defs><g id="Слой_2" data-name="Слой 2"><g id="Asset_Bank" data-name="Asset Bank"><polygon class="cls-1" points="1703.85 710.03 1703.85 788.55 0 788.55 0 495.48 60.24 702.86 204.97 204.55 352.24 711.62 406.95 523.33 475.47 759.23 506 759.23 574.52 523.33 643.04 759.23 658.78 759.23 740.62 477.43 767.21 569.01 837.03 328.65 843.88 352.18 920.8 617.01 971.34 442.99 1049.14 710.84 1106.26 514.14 1175.27 751.76 1264.97 442.99 1356.82 759.23 1375.35 759.23 1443.87 523.33 1512.39 759.23 1519.14 759.23 1618.64 416.66 1703.85 710.03"/><polygon class="cls-2" points="1703.85 254.14 1703.85 710.03 1618.64 416.66 1519.14 759.23 1512.39 759.23 1443.87 523.33 1375.35 759.23 1356.82 759.23 1264.97 442.99 1175.27 751.76 1106.26 514.14 1049.14 710.84 971.34 442.99 920.8 617.01 843.88 352.18 837.03 328.65 767.21 569.01 740.62 477.43 658.78 759.23 643.04 759.23 574.52 523.33 506 759.23 475.47 759.23 406.95 523.33 352.24 711.62 204.97 204.55 60.24 702.86 0 495.48 0 310.08 90.06 0 141.11 175.81 184.19 27.56 247.27 244.76 294.35 82.66 339.86 239.31 374.69 119.38 425 292.62 452.76 197.09 481.63 296.5 533.07 119.38 619.25 416.04 654.74 293.82 687.19 405.52 723.61 280.04 769.95 439.63 822.3 259.39 848.83 350.75 893.47 197.09 924.22 302.95 948.3 220.03 977.4 320.25 1017.18 183.31 1065.53 349.77 1123.07 151.64 1130.01 175.58 1150.31 105.73 1178.53 202.89 1196.09 142.45 1231.6 264.66 1297.09 39.16 1325.86 138.18 1345.28 71.32 1383.66 203.47 1418.75 82.66 1448.01 183.4 1489.91 39.16 1532.46 185.65 1565.67 71.32 1595.48 174.02 1638.03 27.56 1703.85 254.14"/></g></g></svg>