<svg xmlns="http://www.w3.org/2000/svg" viewBox="0 0 109.48 18.53"><defs><style>.cls-1{fill:#fff;}</style></defs><title>Wordmark White210118 Totem Delivery Assets SVG</title><g id="Layer_2" data-name="Layer 2"><g id="Asset_Bank" data-name="Asset Bank"><path class="cls-1" d="M5,18.16V5H0V.35H15V5H10V18.16Z"/><path class="cls-1" d="M37,2.61A9.06,9.06,0,0,0,30.33,0a9.09,9.09,0,0,0-6.69,2.61A9,9,0,0,0,21,9.27a8.85,8.85,0,0,0,2.65,6.63,9.14,9.14,0,0,0,6.69,2.63A9.11,9.11,0,0,0,37,15.9a8.84,8.84,0,0,0,2.63-6.63A9,9,0,0,0,37,2.61ZM33.86,12.74a4.78,4.78,0,0,1-3.53,1.37,4.76,4.76,0,0,1-3.53-1.37,4.59,4.59,0,0,1-1.37-3.47,4.69,4.69,0,0,1,1.37-3.5,4.75,4.75,0,0,1,3.53-1.35,4.76,4.76,0,0,1,3.53,1.35,4.72,4.72,0,0,1,1.35,3.5A4.62,4.62,0,0,1,33.86,12.74Z"/><path class="cls-1" d="M50.62,18.16V5h-5V.35h15V5h-5V18.16Z"/><path class="cls-1" d="M68.14,18.16V.35H81.47V4.68H73.16V7H80v4.33H73.16v2.46h8.51v4.33Z"/><path class="cls-1" d="M89,18.16V.35h7l3.33,8.43L102.49.35h7V18.16h-5V6.42l-3.08,7.79h-4.3L94,6.42V18.16Z"/></g></g></svg>