<svg xmlns="http://www.w3.org/2000/svg" viewBox="0 0 26.26 35.27"><defs><style>.cls-1{fill:#fff;}</style></defs><g id="Слой_2" data-name="Слой 2"><g id="Asset_Bank" data-name="Asset Bank"><path class="cls-1" d="M24.72,16h0l-.25-.41V0L17.43,9.75a13.14,13.14,0,0,0-8.6,0L1.77,0V15.56L1.52,16h0A13,13,0,0,0,0,22.14c0,.13,0,.25,0,.36l0,.57.56.12a11.53,11.53,0,0,1,9.08,11v.6l.59.14A13.07,13.07,0,0,0,16,35l.59-.14v-.6a11.53,11.53,0,0,1,9.09-11l.55-.12.05-.57c0-.11,0-.23,0-.36A13.05,13.05,0,0,0,24.72,16ZM23,4.77v8.66c-.06-.07-.13-.13-.2-.2s-.36-.38-.55-.57l-.32-.29c-.2-.18-.39-.34-.6-.5L21,11.61c-.23-.18-.48-.34-.72-.5L20,10.94a10.35,10.35,0,0,0-1-.57l0,0Zm-5.51,6.62c.27.11.55.23.81.36l.26.14.53.29.3.19.45.3c.11.07.2.15.3.22l.42.33.29.25.38.35.27.28c.12.12.24.24.35.37l.26.3c.11.13.21.27.32.41l.23.3a.41.41,0,0,0,.07.11l-9.55,7.24L3.58,15.59a.61.61,0,0,0,.07-.1l.24-.32c.1-.14.21-.27.31-.4l.26-.3c.11-.13.23-.25.35-.37l.28-.28c.12-.12.24-.24.37-.35l.3-.25c.13-.11.26-.22.4-.32l.31-.23.44-.29.32-.2c.15-.1.32-.18.48-.27l.3-.16c.23-.11.47-.22.7-.31l.12-.06A11.6,11.6,0,0,1,17.44,11.39ZM3.31,4.77l4.05,5.58,0,0a11.6,11.6,0,0,0-1,.57L6,11.12a8.17,8.17,0,0,0-.71.49L5,11.87c-.21.16-.4.32-.59.49l-.33.3c-.19.19-.37.37-.55.57s-.13.13-.2.2ZM15.05,33.56a11.25,11.25,0,0,1-3.84,0A13,13,0,0,0,1.55,21.83a11.57,11.57,0,0,1,1.23-4.91l10.35,7.84,10.35-7.84a11.57,11.57,0,0,1,1.23,4.91A13.05,13.05,0,0,0,15.05,33.56Z"/></g></g></svg>